<?xml version="1.0" encoding="UTF-8"?>
<svg version="1.1" xmlns="http://www.w3.org/2000/svg" width="662" height="377">
<path d="M0 0 C2.76820632 0.02365274 5.5364013 0.04208942 8.30465627 0.0590117 C12.58486099 0.08599521 16.86466147 0.12776438 21.14460993 0.18164682 C22.69343797 0.19904582 24.24232855 0.211676 25.79123688 0.21902657 C36.14119159 0.2734049 44.63548232 0.69198988 52.60119367 7.98479867 C58.37357935 14.53367278 59.29334296 21.76681519 59.22013593 30.18864083 C59.21506747 31.48091996 59.21506747 31.48091996 59.20989662 32.79930574 C59.19747704 35.69117651 59.17793313 38.58295695 59.15856671 41.4747889 C59.14846405 43.54605517 59.13888925 45.61732408 59.1298039 47.68859506 C59.10968329 52.15152019 59.08696298 56.61442217 59.06259465 61.07732606 C59.02525437 68.13183276 59.00081567 75.18634601 58.97956586 82.24091744 C58.97592847 83.43095154 58.97229108 84.62098563 58.96854347 85.84708136 C58.96113759 88.28053615 58.95376512 90.71399105 58.94642532 93.14744604 C58.89642348 109.57324655 58.8381383 125.99889103 58.74255109 142.42449594 C58.67818287 153.50204575 58.63498004 164.57945345 58.61639553 175.65717775 C58.60570178 181.52106139 58.58399853 187.38445341 58.53644109 193.24816346 C58.49188913 198.76153434 58.47514511 204.27428085 58.47990346 209.78782296 C58.47665113 211.81275514 58.46307061 213.83770063 58.43848157 215.86248612 C58.40644865 218.62449369 58.41130978 221.3840597 58.42545819 224.14616036 C58.39821944 225.35170647 58.39821944 225.35170647 58.37043041 226.58160704 C58.41528868 229.52139448 58.48421642 231.95412092 60.43623817 234.26537549 C61.93780128 235.5056876 63.53798494 236.62373715 65.14025617 237.73089242 C66.82458989 239.74522883 68.44927298 241.81073308 70.01525617 243.91839242 C70.88017478 245.07276326 71.74607203 246.22640147 72.61291242 247.37932992 C73.03717511 247.94619515 73.46143781 248.51306039 73.89855695 249.09710336 C75.69352874 251.45887119 77.57347327 253.74846472 79.45275617 256.04339242 C80.68762925 257.60138645 81.91728575 259.16353787 83.14025617 260.73089242 C83.67006085 261.39347054 84.19986554 262.05604867 84.74572492 262.73870492 C88.1412492 267.43727354 88.86137393 271.4072288 88.55041242 277.18792367 C87.52350821 283.55472976 83.20355628 286.76824537 78.33556867 290.43401742 C73.69459673 293.17565921 69.29709952 293.98104267 63.96102929 293.98816133 C62.73544484 293.99461022 61.50986039 294.00105911 60.24713701 294.00770342 C58.89540348 294.00476145 57.54367037 294.00162604 56.19193769 293.99831796 C54.74949104 294.0020558 53.30704642 294.00665785 51.86460501 294.0120486 C47.90496252 294.02427749 43.94540452 294.02401827 39.98574746 294.02165985 C35.71364399 294.02125166 31.44156759 294.03229106 27.16947675 294.04177499 C18.80120897 294.05838524 10.43296938 294.06388454 2.0646865 294.06499974 C-4.73763407 294.06595019 -11.53994535 294.07006028 -18.34226298 294.076401 C-37.62936278 294.0940133 -56.91644033 294.10323986 -76.20354823 294.10174005 C-77.24323975 294.10166013 -78.28293127 294.10158022 -79.3541286 294.10149789 C-80.39508997 294.10141613 -81.43605133 294.10133437 -82.50855698 294.10125013 C-99.37976786 294.10043718 -116.25088947 294.11957705 -133.12207452 294.14777462 C-150.44653441 294.17650124 -167.77095077 294.19031505 -185.09543508 294.18858707 C-194.8213257 294.1879231 -204.54712273 294.19341839 -214.2729919 294.21494317 C-222.55361534 294.23315201 -230.83410276 294.23750473 -239.11473755 294.22392432 C-243.33867025 294.21739323 -247.56234198 294.21728249 -251.78624988 294.23463082 C-255.65587551 294.25036045 -259.52503323 294.24749934 -263.39464744 294.23006256 C-264.7916601 294.2269924 -266.18870767 294.23062574 -267.58567915 294.24178271 C-277.69946737 294.31718284 -285.73743173 293.1971418 -293.35974383 286.10589242 C-294.00943133 285.51550179 -294.65911883 284.92511117 -295.32849383 284.31682992 C-298.25004454 281.29093811 -297.99464803 278.87887385 -297.98474383 274.79339242 C-297.98732196 273.73249398 -297.98990008 272.67159554 -297.99255633 271.57854867 C-297.85974383 268.73089242 -297.85974383 268.73089242 -296.85974383 265.73089242 C-296.19974383 265.73089242 -295.53974383 265.73089242 -294.85974383 265.73089242 C-294.61224383 265.00901742 -294.36474383 264.28714242 -294.10974383 263.54339242 C-292.73029254 260.439627 -291.02141652 258.34724848 -288.85974383 255.73089242 C-288.16236102 254.88011117 -287.46497821 254.02932992 -286.74646258 253.15276742 C-286.0207204 252.27104867 -285.29497821 251.38932992 -284.54724383 250.48089242 C-281.0817082 246.26297076 -277.72502851 241.98450937 -274.46521258 237.60589242 C-272.85974383 235.73089242 -272.85974383 235.73089242 -270.7890451 234.63353658 C-268.29122006 232.17022393 -268.38212093 230.2684019 -268.34808069 226.85841805 C-268.36041418 226.05162344 -268.37274767 225.24482883 -268.38545489 224.4135859 C-268.38138669 223.12576346 -268.38138669 223.12576346 -268.37723631 221.8119244 C-268.3729761 218.92364226 -268.39737008 216.03630298 -268.42151141 213.14812875 C-268.42427577 211.08187668 -268.42526582 209.01562158 -268.42460895 206.94936776 C-268.42774036 201.32713715 -268.45542654 195.70525688 -268.48709965 190.08312464 C-268.5157917 184.20253006 -268.52110673 178.32191835 -268.52861285 172.44126534 C-268.54623116 161.29124501 -268.58338336 150.14138348 -268.62820953 138.99144262 C-268.69325748 122.64087148 -268.73328087 106.29023496 -268.76827025 89.93957448 C-268.77212437 88.14024149 -268.77212437 88.14024149 -268.77605635 86.30455834 C-268.78115454 83.91222 -268.78618672 81.51988153 -268.79115099 79.12754291 C-268.80639862 72.12413694 -268.82874778 65.12079882 -268.85720861 58.11743438 C-268.8742498 53.7554897 -268.88735273 49.39353859 -268.89967799 45.0315783 C-268.90633253 43.01116983 -268.91476275 40.99076629 -268.9251163 38.97037339 C-268.93909928 36.20794753 -268.94680716 33.44556973 -268.95308185 30.68311715 C-268.95872317 29.88747615 -268.96436449 29.09183515 -268.97017676 28.27208382 C-268.97850773 15.15477374 -268.97850773 15.15477374 -265.79724383 11.10589242 C-264.82786883 10.32214242 -263.85849383 9.53839242 -262.85974383 8.73089242 C-262.23325946 8.21397836 -261.60677508 7.69706429 -260.96130633 7.16448617 C-254.60259979 2.10919265 -249.16379548 0.43138245 -241.0035274 0.44569039 C-239.84235553 0.43594344 -239.84235553 0.43594344 -238.65772563 0.42599958 C-236.06935044 0.40669602 -233.48114178 0.40144404 -230.89270282 0.39617562 C-229.02975224 0.38523015 -227.16680647 0.37343827 -225.30386615 0.36086679 C-220.22224583 0.3291882 -215.1406464 0.30996102 -210.05895758 0.29324389 C-204.65211344 0.27371344 -199.24532343 0.24400002 -193.83851886 0.21580148 C-184.67414651 0.1695927 -175.50976666 0.13132599 -166.34533954 0.09783578 C-157.12133026 0.06405787 -147.89740034 0.0228185 -138.67346454 -0.02716422 C-92.44855083 -0.27671826 -46.22432523 -0.42597986 0 0 Z M-239.85974383 29.73089242 C-239.95745054 32.19719902 -239.98970696 34.63548814 -239.97999835 37.10224557 C-239.98085437 37.88116662 -239.98171039 38.66008767 -239.98259234 39.46261239 C-239.98425763 42.10097128 -239.97870763 44.73926777 -239.97326922 47.37762094 C-239.97296313 49.29009364 -239.97309596 51.20256646 -239.97363448 53.11503911 C-239.97386105 58.25529756 -239.96804828 63.39553293 -239.96102405 68.53578591 C-239.9553461 73.35208358 -239.95506185 78.16837552 -239.95434833 82.9846766 C-239.94909257 97.08758495 -239.93513153 111.19048897 -239.92224383 125.29339242 C-239.90161883 156.78776742 -239.88099383 188.28214242 -239.85974383 220.73089242 C-150.75974383 220.73089242 -61.65974383 220.73089242 30.14025617 220.73089242 C30.16088117 189.23651742 30.18150617 157.74214242 30.20275617 125.29339242 C30.21641217 110.34973397 30.21641217 110.34973397 30.23034406 95.10418344 C30.23368747 86.2120251 30.23368747 86.2120251 30.23569989 77.31986642 C30.23663553 73.34407141 30.24039875 69.36828961 30.24583173 65.39249825 C30.25265711 60.33123292 30.25475361 55.26998698 30.25332844 50.20871747 C30.25362674 48.34492244 30.25562949 46.48112677 30.2594713 44.61733568 C30.26439769 42.11228057 30.26326369 39.6073022 30.26051068 37.10224557 C30.26342335 36.36219749 30.26633601 35.62214942 30.26933694 34.85967565 C30.55440117 31.51052288 30.55440117 31.51052288 29.14025617 28.73089242 C27.70772172 28.63337965 26.27039577 28.60533794 24.83454633 28.60505128 C23.89962196 28.60244353 22.9646976 28.59983578 22.00144219 28.59714901 C20.44267342 28.6004951 20.44267342 28.6004951 18.85241437 28.60390878 C17.75787348 28.60234879 16.66333259 28.6007888 15.53562379 28.59918153 C11.83741497 28.59516637 8.1392466 28.59836317 4.44103742 28.60149789 C1.80215068 28.60014408 -0.83673319 28.59840068 -3.47561908 28.59618783 C-9.91747799 28.59172945 -16.35932528 28.5927069 -22.80118465 28.59560047 C-28.03427754 28.59785424 -33.26736716 28.59816714 -38.50046039 28.59707665 C-39.24383299 28.59692342 -39.98720559 28.59677019 -40.75310463 28.59661231 C-42.26301336 28.5962926 -43.7729221 28.59596839 -45.28283083 28.59563972 C-59.45803571 28.59278473 -73.63323413 28.59607225 -87.80843794 28.60144009 C-99.98472283 28.60590814 -112.16099818 28.60513222 -124.3372829 28.60052133 C-138.46002143 28.5951759 -152.58275429 28.59305942 -166.70549369 28.59613359 C-168.21000489 28.59645216 -169.71451608 28.59676653 -171.21902728 28.59707665 C-172.32954606 28.59730807 -172.32954606 28.59730807 -173.46249956 28.59754416 C-178.69235832 28.59840941 -183.92221351 28.59694626 -189.15207171 28.5945971 C-195.52113896 28.59179925 -201.89019388 28.59253704 -208.2592597 28.59787785 C-211.51197668 28.60051507 -214.76466868 28.6009858 -218.0173862 28.59822869 C-221.53557909 28.5955203 -225.05371297 28.59889449 -228.57190204 28.60390878 C-229.61108122 28.60167806 -230.6502604 28.59944733 -231.72092986 28.59714901 C-232.65585423 28.59975676 -233.59077859 28.60236451 -234.55403399 28.60505128 C-235.36723259 28.60521363 -236.18043118 28.60537598 -237.01827216 28.60554326 C-238.8773802 28.52937793 -238.8773802 28.52937793 -239.85974383 29.73089242 Z M-248.85974383 249.73089242 C-251.13709393 252.54599235 -251.13709393 252.54599235 -250.85974383 255.73089242 C-249.08448573 255.73969178 -249.08448573 255.73969178 -247.27336383 255.74866891 C-236.13404178 255.80581752 -224.99491644 255.87853773 -213.85579467 255.96660733 C-208.12869105 256.01138443 -202.40165977 256.05062432 -196.6744411 256.07732797 C-191.1500333 256.10328775 -185.62590285 256.14363798 -180.10166621 256.19407868 C-177.99132805 256.21079707 -175.88094187 256.22228027 -173.77054667 256.22850633 C-170.82040789 256.23809342 -167.87098665 256.26608775 -164.92102313 256.29851937 C-163.60472163 256.29636674 -163.60472163 256.29636674 -162.26182818 256.29417062 C-156.28411679 256.38745295 -156.28411679 256.38745295 -154.1781919 258.09175038 C-152.5327205 260.13745959 -151.81893889 262.3009316 -150.85974383 264.73089242 C-147.5642658 266.37863143 -143.9006722 265.85984967 -140.27917743 265.84441781 C-139.39131045 265.84456384 -138.50344348 265.84470986 -137.58867145 265.84486032 C-134.64515015 265.84416197 -131.70169162 265.83637323 -128.75818133 265.82854867 C-126.72079765 265.82668421 -124.68341352 265.82526044 -122.64602923 265.82426095 C-117.27676418 265.82043797 -111.90752606 265.81060953 -106.53827167 265.79955697 C-101.06209943 265.78933815 -95.58592285 265.78476232 -90.10974383 265.77972054 C-79.35973198 265.76898709 -68.60974014 265.75191327 -57.85974383 265.73089242 C-57.59419696 265.16499398 -57.32865008 264.59909554 -57.05505633 264.01604867 C-56.70185321 263.28257211 -56.34865008 262.54909554 -55.98474383 261.79339242 C-55.63669696 261.06249398 -55.28865008 260.33159554 -54.93005633 259.57854867 C-53.85974383 257.73089242 -53.85974383 257.73089242 -51.85974383 256.73089242 C-48.96185361 256.60807517 -46.08645955 256.54512939 -43.18738055 256.52557015 C-42.28976001 256.51567056 -41.39213946 256.50577096 -40.4673183 256.49557137 C-37.49138308 256.46390742 -34.51543189 256.43917961 -31.53943133 256.41448617 C-29.47962276 256.39392087 -27.41981845 256.37292451 -25.36001849 256.35151315 C-19.93161726 256.2962487 -14.50317766 256.24685872 -9.07470965 256.19866586 C-3.53817579 256.14848274 1.99830218 256.09278005 7.53478742 256.03753304 C18.40322929 255.92989799 29.27171963 255.82846491 40.14025617 255.73089242 C40.47025617 255.07089242 40.80025617 254.41089242 41.14025617 253.73089242 C38.5942102 250.20707555 38.5942102 250.20707555 35.14025617 247.73089242 C33.6066771 247.63575655 32.06899658 247.60353488 30.53246999 247.60225797 C29.06717089 247.5974213 29.06717089 247.5974213 27.5722698 247.59248692 C25.95090276 247.59480982 25.95090276 247.59480982 24.29678082 247.59717965 C22.58335895 247.59378132 22.58335895 247.59378132 20.8353225 247.59031433 C17.6551122 247.58506211 14.47493727 247.58433234 11.29472399 247.5855087 C7.86860694 247.58571219 4.44249842 247.58019891 1.01638532 247.57545114 C-5.6997286 247.56713261 -12.41583375 247.56439575 -19.13195239 247.56383876 C-24.58953825 247.56336415 -30.0471212 247.56131215 -35.50470614 247.55813813 C-50.96713662 247.54932811 -66.42956015 247.54471927 -81.89199315 247.54546861 C-82.72617021 247.54550856 -83.56034727 247.54554852 -84.41980243 247.54558969 C-85.67259026 247.54565101 -85.67259026 247.54565101 -86.95068695 247.54571357 C-100.48877588 247.54612009 -114.02683701 247.5365499 -127.56491791 247.52245132 C-141.45511495 247.50809983 -155.34529843 247.50118046 -169.23550308 247.50204509 C-177.0380459 247.5023775 -184.84055957 247.49961144 -192.64309573 247.48886704 C-199.28617885 247.47977814 -205.92921962 247.47757347 -212.57230626 247.48437647 C-215.96314153 247.48764991 -219.35389546 247.48766883 -222.74472308 247.47902322 C-226.41732278 247.47135658 -230.08970648 247.47591272 -233.76230121 247.48365426 C-235.37697608 247.47593892 -235.37697608 247.47593892 -237.02427065 247.46806771 C-238.49739299 247.4749659 -238.49739299 247.4749659 -240.00027537 247.48200345 C-240.84824589 247.48178608 -241.6962164 247.48156871 -242.56988299 247.48134476 C-245.13431245 247.76081474 -246.69465106 248.33771622 -248.85974383 249.73089242 Z " fill="#3A434F" transform="translate(439.85974383354187,43.26910758018494)"/>
<path d="M0 0 C1.86368739 0.01674706 3.72737556 0.03340795 5.59106445 0.04998779 C9.46359906 0.08612753 13.33604434 0.12729674 17.20849609 0.17138672 C22.15530513 0.22672748 27.10206436 0.26308123 32.04907227 0.29501724 C35.88401837 0.32292465 39.71874351 0.36396997 43.55352783 0.40862274 C45.37782451 0.42771706 47.20217769 0.44206423 49.02655029 0.45142365 C51.57405772 0.46583026 54.12070808 0.49877837 56.66796875 0.53613281 C57.4088826 0.53626877 58.14979645 0.53640472 58.91316223 0.5365448 C66.53089414 0.68805161 72.92459079 3.05517616 78.5859375 8.23828125 C84.35832318 14.78715536 85.27808679 22.02029777 85.20487976 30.44212341 C85.19981131 31.73440254 85.19981131 31.73440254 85.19464046 33.05278832 C85.18222087 35.94465909 85.16267696 38.83643953 85.14331055 41.72827148 C85.13320788 43.79953775 85.12363309 45.87080666 85.11454773 47.94207764 C85.09442712 52.40500277 85.07170681 56.86790475 85.04733849 61.33080864 C85.00999821 68.38531534 84.9855595 75.43982859 84.96430969 82.49440002 C84.9606723 83.68443412 84.95703492 84.87446821 84.9532873 86.10056394 C84.94588142 88.53401873 84.93850895 90.96747363 84.93116915 93.40092862 C84.88116731 109.82672913 84.82288213 126.25237361 84.72729492 142.67797852 C84.6629267 153.75552833 84.61972388 164.83293603 84.60113937 175.91066033 C84.59044562 181.77454397 84.56874236 187.63793599 84.52118492 193.50164604 C84.47663296 199.01501692 84.45988894 204.52776343 84.46464729 210.04130554 C84.46139497 212.06623772 84.44781445 214.09118321 84.4232254 216.1159687 C84.39119248 218.87797627 84.39605362 221.63754228 84.41020203 224.39964294 C84.38296327 225.60518905 84.38296327 225.60518905 84.35517424 226.83508962 C84.40003252 229.77487706 84.46896025 232.2076035 86.420982 234.51885808 C87.92254511 235.75917018 89.52272877 236.87721973 91.125 237.984375 C92.80933372 239.99871141 94.43401681 242.06421566 96 244.171875 C96.86491862 245.32624585 97.73081587 246.47988405 98.59765625 247.6328125 C99.02191895 248.19967773 99.44618164 248.76654297 99.88330078 249.35058594 C101.67827257 251.71235377 103.5582171 254.0019473 105.4375 256.296875 C106.67237308 257.85486903 107.90202958 259.41702045 109.125 260.984375 C109.65480469 261.64695312 110.18460938 262.30953125 110.73046875 262.9921875 C114.12599304 267.69075612 114.84611777 271.66071138 114.53515625 277.44140625 C113.50825204 283.80821234 109.18830012 287.02172795 104.3203125 290.6875 C99.67934056 293.42914179 95.28184335 294.23452525 89.94577312 294.24164391 C88.72018867 294.2480928 87.49460422 294.25454169 86.23188084 294.261186 C84.88014732 294.25824403 83.5284142 294.25510862 82.17668152 294.25180054 C80.73423488 294.25553838 79.29179026 294.26014043 77.84934884 294.26553118 C73.88970635 294.27776007 69.93014836 294.27750085 65.97049129 294.27514243 C61.69838782 294.27473424 57.42631143 294.28577364 53.15422058 294.29525757 C44.78595281 294.31186782 36.41771321 294.31736712 28.04943033 294.31848232 C21.24710976 294.31943277 14.44479848 294.32354286 7.64248085 294.32988358 C-11.64461895 294.34749588 -30.9316965 294.35672244 -50.2188044 294.35522263 C-51.25849592 294.35514272 -52.29818744 294.3550628 -53.36938477 294.35498047 C-54.41034613 294.35489871 -55.4513075 294.35481695 -56.52381315 294.35473271 C-73.39502403 294.35391976 -90.26614563 294.37305963 -107.13733069 294.4012572 C-124.46179058 294.42998382 -141.78620693 294.44379763 -159.11069125 294.44206965 C-168.83658187 294.44140568 -178.5623789 294.44690097 -188.28824806 294.46842575 C-196.5688715 294.48663459 -204.84935893 294.49098731 -213.12999371 294.4774069 C-217.35392642 294.47087581 -221.57759815 294.47076507 -225.80150604 294.4881134 C-229.67113168 294.50384303 -233.5402894 294.50098192 -237.40990361 294.48354514 C-238.80691627 294.48047498 -240.20396384 294.48410832 -241.60093532 294.49526529 C-251.67543359 294.57037251 -259.68708462 293.41610198 -267.375 286.484375 C-268.0246875 285.9171875 -268.674375 285.35 -269.34375 284.765625 C-271.01311099 282.82371528 -271.47978684 281.48739169 -271.875 278.984375 C-270.885 278.984375 -269.895 278.984375 -268.875 278.984375 C-268.38 280.469375 -268.38 280.469375 -267.875 281.984375 C-266.885 281.984375 -265.895 281.984375 -264.875 281.984375 C-264.875 282.644375 -264.875 283.304375 -264.875 283.984375 C-257.51349393 286.3075456 -250.4121619 286.26793467 -242.74864197 286.24507141 C-241.31129383 286.24809471 -239.87394731 286.25198509 -238.43660361 286.25666398 C-234.50041711 286.26692929 -230.56432186 286.26476593 -226.62812793 286.26048338 C-222.37791457 286.25801357 -218.12772304 286.26703339 -213.8775177 286.27452087 C-205.55698159 286.28726177 -197.23647776 286.28906241 -188.91593354 286.28672061 C-182.15368982 286.28493698 -175.39145589 286.28668805 -168.62921333 286.29094505 C-167.6664926 286.29154024 -166.70377187 286.29213543 -165.71187778 286.29274866 C-163.75609417 286.29396041 -161.80031056 286.29517454 -159.84452695 286.29639103 C-141.50964528 286.30726376 -123.17478201 286.30510506 -104.83989931 286.29900619 C-88.06447754 286.29383456 -71.2891138 286.30509943 -54.51370352 286.32410441 C-37.2863719 286.34347175 -20.05906776 286.35174092 -2.83172518 286.34798115 C6.83927949 286.34606778 16.51023475 286.34857015 26.18123055 286.36269569 C34.41207439 286.37459622 42.64283837 286.37602914 50.87368328 286.36390553 C55.07303557 286.35800814 59.27224168 286.35694119 63.47158432 286.36890793 C67.31628723 286.37973685 71.16072138 286.37669924 75.00541156 286.36264624 C76.39559719 286.3599911 77.78580369 286.36239148 79.17596889 286.37038211 C89.05886552 286.43529845 89.05886552 286.43529845 98.125 282.984375 C98.78371094 282.64277344 99.44242188 282.30117188 100.12109375 281.94921875 C102.61167871 280.17408638 104.00581429 278.62460264 104.56640625 275.61328125 C104.66569779 271.15840091 104.5053751 266.86814491 102.125 262.984375 C101.135 262.654375 100.145 262.324375 99.125 261.984375 C96.58951536 259.14155889 94.81657109 256.36751719 93.125 252.984375 C92.465 252.654375 91.805 252.324375 91.125 251.984375 C91.125 250.994375 91.125 250.004375 91.125 248.984375 C90.135 248.654375 89.145 248.324375 88.125 247.984375 C86.6953125 246.05859375 86.6953125 246.05859375 85.25 243.671875 C82.17078015 238.85820626 78.85332882 236.13659421 74.125 232.984375 C74.28710339 232.00614242 74.44920677 231.02790983 74.61622238 230.02003384 C75.21423827 225.80706547 75.27021258 221.66320269 75.26544189 217.41383362 C75.26841302 216.57636894 75.27138414 215.73890426 75.2744453 214.87606186 C75.28308336 212.0834613 75.28463636 209.29090385 75.28613281 206.49829102 C75.2907643 204.49055897 75.29578941 202.48282781 75.30117798 200.47509766 C75.31426857 195.0309341 75.32073993 189.58678285 75.32518864 184.14260602 C75.32812362 180.73987936 75.33222914 177.33715605 75.33669281 173.93443108 C75.35035642 163.28348385 75.3600297 152.63254428 75.3638947 141.9815889 C75.36837847 129.69413052 75.38594596 117.40678321 75.4148953 105.1193586 C75.43651121 95.61428556 75.44659887 86.10924378 75.44793582 76.60414642 C75.44898353 70.92986172 75.45488478 65.2556816 75.47275543 59.58142281 C75.48923537 54.24538582 75.49139193 48.90953207 75.48261642 43.5734787 C75.48184612 41.61757097 75.48618784 39.66165338 75.49607468 37.70577049 C75.50880089 35.0309295 75.50291384 32.35673692 75.49249268 29.68190002 C75.50054908 28.91233319 75.50860548 28.14276636 75.51690602 27.34987932 C75.45740495 20.79731454 74.06768513 15.34710015 69.8125 10.171875 C62.7810611 4.44861078 57.45613337 4.78020581 48.75 5.296875 C31.61717781 6.08760444 14.49473608 6.08150091 -2.6518631 6.05080795 C-4.88238986 6.04686193 -7.11291659 6.04367364 -9.34344482 6.04067993 C-17.85398465 6.02884273 -26.36448976 6.01023729 -34.875 5.984375 C-34.875 5.324375 -34.875 4.664375 -34.875 3.984375 C-36.855 3.489375 -36.855 3.489375 -38.875 2.984375 C-37.885 2.984375 -36.895 2.984375 -35.875 2.984375 C-35.875 2.324375 -35.875 1.664375 -35.875 0.984375 C-23.89083152 0.04618611 -12.0146862 -0.12458851 0 0 Z " fill="#000000" transform="translate(413.875,43.015625)"/>
<path d="M0 0 C92.07 0 184.14 0 279 0 C279.84728203 4.23641013 280.08384078 7.72412002 280 12 C279.34 10.68 278.68 9.36 278 8 C189.56 8 101.12 8 10 8 C9.67 71.03 9.34 134.06 9 199 C98.1 199 187.2 199 279 199 C279.33 197.68 279.66 196.36 280 195 C280 197.31 280 199.62 280 202 C187.6 202 95.2 202 0 202 C0 135.34 0 68.68 0 0 Z " fill="#000000" transform="translate(191,65)"/>
<path d="M0 0 C4.90709051 3.30394486 9.28824884 7.2971226 13.73583984 11.18408203 C16.11209791 13.24083117 18.54328248 15.22701906 20.98046875 17.2109375 C21.86347656 17.93023437 22.74648438 18.64953125 23.65625 19.390625 C24.54699219 20.11507812 25.43773437 20.83953125 26.35546875 21.5859375 C29.20926199 23.9163443 32.06154992 26.24834311 34.90625 28.58984375 C36.34606975 29.76328536 37.79729104 30.92337815 39.2734375 32.05078125 C42.88522189 34.84211091 44.88084175 37.24398023 46.35546875 41.5859375 C47.0863106 47.8082438 46.63235608 52.12917695 43.35546875 57.5859375 C40.9296875 60.19140625 40.9296875 60.19140625 38.04296875 62.7734375 C37.51952881 63.24265625 36.99608887 63.711875 36.45678711 64.1953125 C32.00340644 68.13461429 27.36057245 71.81804504 22.65258789 75.4465332 C19.06806044 78.21318117 15.58228329 81.06069091 12.15356445 84.01831055 C-2.30541397 96.48556628 -2.30541397 96.48556628 -12.09375 96.01171875 C-17.46967704 95.1143588 -21.16383393 91.58229368 -24.64453125 87.5859375 C-26.39810797 82.32520735 -26.41645483 77.05427009 -25.64453125 71.5859375 C-22.69618731 65.93879598 -17.14900459 62.2035886 -12.1328125 58.4609375 C-7.51925824 54.98447589 -3.1014127 51.25974071 1.35546875 47.5859375 C-1.83257511 44.35825544 -5.0766791 41.23632537 -8.45703125 38.2109375 C-9.32070313 37.4375 -10.184375 36.6640625 -11.07421875 35.8671875 C-14.01650127 33.25579998 -16.97677077 30.66621482 -19.953125 28.09375 C-23.57774014 24.86256884 -25.36243267 22.99627344 -25.953125 17.94921875 C-26.22961605 11.40559727 -25.84681389 7.14517565 -21.41796875 2.14453125 C-14.99771552 -3.497938 -7.40264229 -4.03780489 0 0 Z " fill="#2B75BD" transform="translate(401.64453125,121.4140625)"/>
<path d="M0 0 C4.52966583 2.47551505 7.16586374 5.37259122 8.8125 10.3125 C8.98198727 12.05738531 9.07849563 13.81001946 9.125 15.5625 C9.18107422 16.93148437 9.18107422 16.93148437 9.23828125 18.328125 C8.32263904 24.74602087 4.91706867 28.67168591 -0.06201172 32.43432617 C-0.66029785 32.86849854 -1.25858398 33.3026709 -1.875 33.75 C-3.12285439 34.69037655 -4.36894476 35.63309837 -5.61328125 36.578125 C-6.21994629 37.03638672 -6.82661133 37.49464844 -7.45166016 37.96679688 C-11.20580103 40.87718007 -14.69950279 44.09210046 -18.1875 47.3125 C-14.55016403 51.05143754 -10.75232966 54.47020365 -6.75 57.8125 C-5.92918945 58.50279297 -5.92918945 58.50279297 -5.09179688 59.20703125 C-2.9067279 61.04300637 -0.72242494 62.87812603 1.49316406 64.67724609 C5.95605685 68.31703116 8.46650601 71.04958447 9.09375 76.96484375 C9.26072229 82.14794205 9.38847198 86.25973175 5.8125 90.3125 C0.46607217 95.30249931 -2.97790663 96.81649173 -10.26171875 96.703125 C-15.29609301 96.0309789 -18.3590536 93.50389292 -22.1875 90.3125 C-22.92637451 89.70124268 -22.92637451 89.70124268 -23.68017578 89.07763672 C-26.47571937 86.75836463 -29.24414025 84.40984679 -31.99609375 82.0390625 C-34.67857673 79.73341779 -37.41193248 77.50587531 -40.1875 75.3125 C-44.18755522 72.13212823 -48.14112354 68.90158637 -52.0625 65.625 C-52.88427734 64.94727539 -52.88427734 64.94727539 -53.72265625 64.25585938 C-58.48992726 60.24782042 -62.66226822 56.53686416 -63.4609375 50.11328125 C-63.73214318 43.46874208 -62.6808671 39.28555116 -58.1875 34.3125 C-55.63093422 31.99225543 -52.99130146 29.84687584 -50.26953125 27.72265625 C-47.05810469 25.21131254 -43.96678785 22.59269533 -40.875 19.9375 C-36.23913092 15.98979497 -31.53229718 12.14402846 -26.75 8.375 C-26.1830542 7.92656738 -25.6161084 7.47813477 -25.03198242 7.01611328 C-10.09546277 -4.67103501 -10.09546277 -4.67103501 0 0 Z " fill="#2C75BD" transform="translate(285.1875,120.6875)"/>
<path d="M0 0 C3.95035121 2.086978 6.64915707 4.21250748 9 8 C10.76868774 17.28715744 7.54465145 24.66741875 3.4375 32.8125 C2.88610352 33.95251465 2.33470703 35.0925293 1.76660156 36.26708984 C0.67803269 38.51622288 -0.41916461 40.7612048 -1.52587891 43.00146484 C-3.01310815 46.02666351 -4.44460698 49.07092013 -5.83862305 52.13989258 C-8.05109191 56.95896151 -10.34867441 61.72281061 -12.74865723 66.45057678 C-17.61592943 76.04942525 -22.05602314 85.81581903 -26.42724609 95.64819336 C-29.83869754 103.30825675 -33.34678669 110.89981069 -37.21875 118.33984375 C-37.53775269 118.96669571 -37.85675537 119.59354767 -38.1854248 120.23939514 C-40.00447428 123.66219097 -41.64121074 126.01154485 -45 128 C-49.55061327 129.3290146 -53.27828241 129.21296585 -57.8125 127.875 C-61.4213414 125.75215212 -63.08849352 124.7465527 -65 121 C-66.35250079 111.45897875 -63.62056304 104.51947126 -59.375 96.125 C-58.77976365 94.90419258 -58.18704992 93.68215242 -57.59667969 92.45898438 C-56.36235628 89.90684358 -55.11726014 87.36040176 -53.86425781 84.81738281 C-51.18683193 79.36239178 -48.6475779 73.84428599 -46.09719849 68.32891846 C-44.66231612 65.23131751 -43.21624165 62.13896561 -41.76953125 59.046875 C-41.32428352 58.09519943 -41.32428352 58.09519943 -40.87004089 57.1242981 C-37.28034553 49.45672352 -33.67543429 41.79631356 -30.06408691 34.13891602 C-29.3229318 32.56730419 -28.58211822 30.99553125 -27.8416748 29.42358398 C-25.57355133 24.60974503 -23.29435623 19.80139154 -21 15 C-20.50081055 13.95271729 -20.00162109 12.90543457 -19.48730469 11.82641602 C-18.8342334 10.48341431 -18.8342334 10.48341431 -18.16796875 9.11328125 C-17.80598389 8.36602783 -17.44399902 7.61877441 -17.07104492 6.84887695 C-13.3640558 0.44973662 -6.9245119 -0.95736623 0 0 Z " fill="#2D75BC" transform="translate(363,104)"/>
<path d="M0 0 C36.47698166 -0.06863926 72.95395201 -0.12151512 109.43098493 -0.15319599 C113.73564696 -0.15694819 118.04030886 -0.16083115 122.3449707 -0.16479492 C123.20196559 -0.16558185 124.05896048 -0.16636878 124.94192491 -0.16717956 C138.8254324 -0.18023998 152.7089027 -0.20389732 166.59238812 -0.23145839 C180.83395622 -0.2594949 195.07550482 -0.27617254 209.31709939 -0.28226548 C218.10771516 -0.28638557 226.89822579 -0.29940705 235.68880919 -0.3237494 C241.71362559 -0.33958495 247.73838749 -0.34440532 253.76322319 -0.34050413 C257.24129742 -0.33857917 260.71918771 -0.34156778 264.19722939 -0.35761642 C267.96600041 -0.37247774 271.73431662 -0.36897644 275.50309753 -0.36076355 C276.60523549 -0.36950207 277.70737344 -0.3782406 278.84290951 -0.38724393 C288.29657953 -0.33131769 288.29657953 -0.33131769 292 3 C292 3.66 292 4.32 292 5 C292.66 5 293.32 5 294 5 C294.625 6.875 294.625 6.875 295 9 C294.34 9.66 293.68 10.32 293 11 C292.44011131 10.5126712 291.88022263 10.02534239 291.30336761 9.52324605 C288.63108488 7.75603178 287.31497287 7.62582903 284.14611816 7.6280632 C283.16527 7.62147336 282.18442184 7.61488351 281.17385101 7.60809398 C280.09876534 7.61615038 279.02367966 7.62420679 277.91601562 7.63250732 C276.77202553 7.62923848 275.62803543 7.62596964 274.44937897 7.62260175 C271.27356807 7.61657269 268.09811574 7.62402511 264.92233658 7.63714409 C261.49761595 7.64803375 258.07292255 7.64163045 254.64819336 7.63735962 C247.93899469 7.63172263 241.22991018 7.6420479 234.52073097 7.65764758 C226.71054557 7.67517335 218.9003824 7.67660656 211.0901804 7.67726317 C197.15644974 7.67895177 183.22277113 7.69477321 169.2890625 7.71875 C155.76301644 7.74200847 142.23700339 7.75617467 128.7109375 7.75976562 C127.87789124 7.75998839 127.04484499 7.76021116 126.18655491 7.76044068 C124.50840807 7.76088327 122.83026123 7.7613253 121.15211439 7.76176675 C120.32432997 7.76198631 119.49654555 7.76220588 118.64367676 7.7624321 C117.81800595 7.76264808 116.99233514 7.76286407 116.141644 7.7630866 C103.25932304 7.76678681 90.37700743 7.77814658 77.49469233 7.7905625 C72.82288482 7.79499891 68.15107782 7.79843672 63.47926903 7.80118462 C56.06897237 7.80561576 48.65869541 7.8133843 41.24841118 7.82795903 C37.86163868 7.83456892 34.47488355 7.83963241 31.08810425 7.84041977 C27.42003844 7.84216083 23.75203701 7.8500316 20.08398438 7.85955811 C19.0088987 7.85869162 17.93381302 7.85782514 16.82614899 7.8569324 C15.84530083 7.86077355 14.86445267 7.86461469 13.85388184 7.86857224 C13.00699547 7.86981873 12.1601091 7.87106523 11.28755951 7.8723495 C8.0351244 7.98513638 8.0351244 7.98513638 5 9 C4.34 10.98 3.68 12.96 3 15 C9.93 15 16.86 15 24 15 C23.67 15.99 23.34 16.98 23 18 C18.76417673 18.04938628 14.52850535 18.08571263 10.29248047 18.10986328 C8.85104453 18.11992963 7.40962905 18.1335838 5.96826172 18.15087891 C3.89806066 18.17510012 1.82812924 18.18647641 -0.2421875 18.1953125 C-2.11173096 18.21102295 -2.11173096 18.21102295 -4.01904297 18.22705078 C-7 18 -7 18 -9 16 C-8.62644052 10.95694697 -4.72353587 6.0853038 -2 2 C-1.34 2 -0.68 2 0 2 C0 1.34 0 0.68 0 0 Z " fill="#000000" transform="translate(186,284)"/>
<path d="M0 0 C3.95035121 2.086978 6.64915707 4.21250748 9 8 C10.76868774 17.28715744 7.54465145 24.66741875 3.4375 32.8125 C2.88610352 33.95251465 2.33470703 35.0925293 1.76660156 36.26708984 C0.67803269 38.51622288 -0.41916461 40.7612048 -1.52587891 43.00146484 C-3.01310815 46.02666351 -4.44460698 49.07092013 -5.83862305 52.13989258 C-8.05109191 56.95896151 -10.34867441 61.72281061 -12.74865723 66.45057678 C-17.61592943 76.04942525 -22.05602314 85.81581903 -26.42724609 95.64819336 C-29.83869754 103.30825675 -33.34678669 110.89981069 -37.21875 118.33984375 C-37.53775269 118.96669571 -37.85675537 119.59354767 -38.1854248 120.23939514 C-40.00447428 123.66219097 -41.64121074 126.01154485 -45 128 C-49.55061327 129.3290146 -53.27828241 129.21296585 -57.8125 127.875 C-61.15188342 125.91065681 -62.9541807 124.27331089 -65 121 C-65 120.01 -65 119.02 -65 118 C-64.2265625 118.4640625 -64.2265625 118.4640625 -63.4375 118.9375 C-59.09385134 120.83088531 -54.69207871 121 -50 121 C-48.50452438 118.1215403 -47.27971416 115.21743179 -46.125 112.1875 C-44.92592443 109.14540088 -43.6889557 106.29941082 -42 103.5 C-39.93070341 100.06464434 -38.52745833 96.47298008 -37.125 92.72265625 C-35.90618917 89.77296476 -34.5039852 86.96216915 -33.06152344 84.11694336 C-31.34534546 80.69445504 -29.74126787 77.22048183 -28.125 73.75 C-25.74070626 68.64692126 -23.30821232 63.58153076 -20.75 58.5625 C-19.01232674 55.12908124 -17.44212205 51.71667427 -16.0625 48.125 C-14.46985312 44.00130019 -12.60551103 40.07735462 -10.625 36.125 C-10.32722656 35.52993652 -10.02945313 34.93487305 -9.72265625 34.32177734 C-8.2729316 31.44497998 -6.78027304 28.60477996 -5.21484375 25.7890625 C-1.98048388 19.84028713 1.01082788 13.88120971 -1 7 C-4.68387438 3.39726823 -8.06023541 3.41164705 -13 3 C-9.39098922 -0.60901078 -4.86304188 -0.67235238 0 0 Z " fill="#000000" transform="translate(363,104)"/>
<path d="M0 0 C5.27258251 1.81982792 8.94167366 4.22901091 12 9 C12.98854183 11.9656255 13.23010095 14.14485693 13.3125 17.25 C13.36857422 18.61898437 13.36857422 18.61898437 13.42578125 20.015625 C12.51013904 26.43352087 9.10456867 30.35918591 4.12548828 34.12182617 C3.52720215 34.55599854 2.92891602 34.9901709 2.3125 35.4375 C1.06464561 36.37787655 -0.18144476 37.32059837 -1.42578125 38.265625 C-2.03244629 38.72388672 -2.63911133 39.18214844 -3.26416016 39.65429688 C-7.01830103 42.56468007 -10.51200279 45.77960046 -14 49 C-10.36266403 52.73893754 -6.56482966 56.15770365 -2.5625 59.5 C-1.74168945 60.19029297 -1.74168945 60.19029297 -0.90429688 60.89453125 C1.2807721 62.73050637 3.46507506 64.56562603 5.68066406 66.36474609 C10.14355685 70.00453116 12.65400601 72.73708447 13.28125 78.65234375 C13.44822229 83.83544205 13.57597198 87.94723175 10 92 C4.65357217 96.98999931 1.20959337 98.50399173 -6.07421875 98.390625 C-11.10859301 97.7184789 -14.1715536 95.19139292 -18 92 C-18.73887451 91.38874268 -18.73887451 91.38874268 -19.49267578 90.76513672 C-22.28821937 88.44586463 -25.05664025 86.09734679 -27.80859375 83.7265625 C-30.49107673 81.42091779 -33.22443248 79.19337531 -36 77 C-40.00005522 73.81962823 -43.95362354 70.58908637 -47.875 67.3125 C-48.69677734 66.63477539 -48.69677734 66.63477539 -49.53515625 65.94335938 C-52.76820099 63.22520695 -55.6658018 60.53648622 -58 57 C-57.67 56.01 -57.34 55.02 -57 54 C-54.66069977 55.78431319 -52.3286163 57.57684069 -50 59.375 C-48.99839844 60.13683594 -48.99839844 60.13683594 -47.9765625 60.9140625 C-47.02910156 61.64882812 -47.02910156 61.64882812 -46.0625 62.3984375 C-45.47597656 62.84880371 -44.88945312 63.29916992 -44.28515625 63.76318359 C-43.86105469 64.17133301 -43.43695313 64.57948242 -43 65 C-43 65.66 -43 66.32 -43 67 C-42.01 67 -41.02 67 -40 67 C-38.28461207 68.61647759 -36.6239053 70.29164198 -35 72 C-31.41550009 75.10316896 -27.70509384 78.04259219 -24 81 C-22.96582427 81.86029067 -21.93197137 82.72096957 -20.8984375 83.58203125 C-14.93110196 88.73174359 -14.93110196 88.73174359 -7.5625 90.625 C-5.7990625 90.315625 -5.7990625 90.315625 -4 90 C-3.01 89.835 -2.02 89.67 -1 89.5 C-0.34 89.335 0.32 89.17 1 89 C1 88.01 1 87.02 1 86 C1.66 86 2.32 86 3 86 C3.05449838 84.27119018 3.09301688 82.54187288 3.125 80.8125 C3.14820313 79.84957031 3.17140625 78.88664062 3.1953125 77.89453125 C2.9893572 74.84227366 2.36146833 72.72778175 1 70 C-0.74867483 68.91568906 -0.74867483 68.91568906 -3 68 C-4.26733141 67.19326861 -5.51633718 66.35733336 -6.75 65.5 C-7.36359375 65.0771875 -7.9771875 64.654375 -8.609375 64.21875 C-9.06828125 63.8165625 -9.5271875 63.414375 -10 63 C-10 62.34 -10 61.68 -10 61 C-10.53238281 60.76152344 -11.06476563 60.52304688 -11.61328125 60.27734375 C-14.68883598 58.6313431 -17.38634967 56.64033259 -20.1875 54.5625 C-20.73341797 54.16740234 -21.27933594 53.77230469 -21.84179688 53.36523438 C-24.59783898 51.31271727 -25.88769017 50.33692948 -27 47 C-23.23225289 43.11807874 -19.37202211 39.20468119 -15 36 C-14.34 36 -13.68 36 -13 36 C-13 35.34 -13 34.68 -13 34 C-11.07412421 32.36860063 -9.15673283 30.86276775 -7.125 29.375 C-6.56941406 28.95476562 -6.01382813 28.53453125 -5.44140625 28.1015625 C-1.26235288 25 -1.26235288 25 1 25 C1 24.01 1 23.02 1 22 C1.66 22 2.32 22 3 22 C3.36131574 14.95016609 3.36131574 14.95016609 2.125 8.0625 C-1.2835621 4.75418973 -5.55227318 3.49370188 -10 2 C-6.20991318 -0.52672455 -4.50802658 -0.44341245 0 0 Z " fill="#000101" transform="translate(281,119)"/>
<path d="M0 0 C5.86109502 3.19696092 10.75318809 7.914001 15.75537109 12.28564453 C18.13162916 14.34239367 20.56281373 16.32858156 23 18.3125 C23.88300781 19.03179687 24.76601563 19.75109375 25.67578125 20.4921875 C26.56652344 21.21664062 27.45726562 21.94109375 28.375 22.6875 C31.22879324 25.0179068 34.08108117 27.34990561 36.92578125 29.69140625 C38.365601 30.86484786 39.81682229 32.02494065 41.29296875 33.15234375 C44.90475314 35.94367341 46.900373 38.34554273 48.375 42.6875 C49.10584185 48.9098063 48.65188733 53.23073945 45.375 58.6875 C42.94921875 61.29296875 42.94921875 61.29296875 40.0625 63.875 C39.53906006 64.34421875 39.01562012 64.8134375 38.47631836 65.296875 C34.02293769 69.23617679 29.3801037 72.91960754 24.67211914 76.5480957 C21.08759169 79.31474367 17.60181454 82.16225341 14.1730957 85.11987305 C-0.28588272 97.58712878 -0.28588272 97.58712878 -10.07421875 97.11328125 C-15.45014579 96.2159213 -19.14430268 92.68385618 -22.625 88.6875 C-23.67476964 85.53819107 -23.72631595 83.29935544 -23.6875 80 C-23.67847656 79.00613281 -23.66945313 78.01226562 -23.66015625 76.98828125 C-23.64275391 75.84939453 -23.64275391 75.84939453 -23.625 74.6875 C-23.295 74.6875 -22.965 74.6875 -22.625 74.6875 C-22.57601563 75.29078125 -22.52703125 75.8940625 -22.4765625 76.515625 C-22.40179688 77.31484375 -22.32703125 78.1140625 -22.25 78.9375 C-22.18039062 79.72640625 -22.11078125 80.5153125 -22.0390625 81.328125 C-21.60524191 83.80008381 -20.92410415 85.54779905 -19.625 87.6875 C-16.01735626 89.35256634 -11.51974899 89.22549062 -7.625 88.6875 C-4.51009913 87.11172186 -4.51009913 87.11172186 -1.625 84.6875 C-0.92761719 84.1821875 -0.23023438 83.676875 0.48828125 83.15625 C4.53155392 80.45938006 4.53155392 80.45938006 7.375 76.6875 C8.365 76.6875 9.355 76.6875 10.375 76.6875 C10.87 75.2025 10.87 75.2025 11.375 73.6875 C13.265625 72.00390625 13.265625 72.00390625 15.625 70.25 C16.43582031 69.6415625 17.24664062 69.033125 18.08203125 68.40625 C18.83871094 67.8390625 19.59539062 67.271875 20.375 66.6875 C21.344375 65.883125 22.31375 65.07875 23.3125 64.25 C25.375 62.6875 25.375 62.6875 27.375 62.6875 C27.705 61.6975 28.035 60.7075 28.375 59.6875 C30.61305637 57.79376 32.96680189 56.12126319 35.34375 54.40625 C37.63710123 52.76777455 37.63710123 52.76777455 38.375 49.6875 C38.61920006 43.59375553 38.61920006 43.59375553 37.375 37.6875 C35.52517528 36.42922877 35.52517528 36.42922877 33.375 35.6875 C32.385 35.0275 31.395 34.3675 30.375 33.6875 C30.375 33.0275 30.375 32.3675 30.375 31.6875 C29.75625 31.378125 29.1375 31.06875 28.5 30.75 C27.125 30.0625 25.75 29.375 24.375 28.6875 C24.375 28.0275 24.375 27.3675 24.375 26.6875 C23.385 26.6875 22.395 26.6875 21.375 26.6875 C19.66615995 25.06410195 18.00053283 23.39430947 16.375 21.6875 C15.385 21.0275 14.395 20.3675 13.375 19.6875 C13.375 19.0275 13.375 18.3675 13.375 17.6875 C12.59382813 17.3471875 12.59382813 17.3471875 11.796875 17 C8.49815465 15.21230639 5.59042579 12.96859676 2.625 10.6875 C2.02300781 10.23632812 1.42101562 9.78515625 0.80078125 9.3203125 C-0.71406356 8.15927498 -2.17469821 6.92822061 -3.625 5.6875 C-3.625 5.0275 -3.625 4.3675 -3.625 3.6875 C-5.37406659 3.49148392 -7.12431846 3.30602597 -8.875 3.125 C-10.33679688 2.96837891 -10.33679688 2.96837891 -11.828125 2.80859375 C-14.3881352 2.69775532 -16.20648159 2.91011908 -18.625 3.6875 C-13.58274422 -2.15090143 -6.98887353 -2.53045421 0 0 Z " fill="#000101" transform="translate(399.625,120.3125)"/>
<path d="M0 0 C0.75650018 -0.00170885 1.51300037 -0.0034177 2.2924248 -0.00517833 C4.81668041 -0.00846157 7.34066773 0.00251111 9.86489868 0.01345825 C11.67856846 0.01402262 13.49223869 0.01370531 15.3059082 0.01257324 C20.22279159 0.01199972 25.13957728 0.02375399 30.05643797 0.03772116 C35.19738996 0.05022857 40.33834422 0.05139903 45.47930908 0.05377197 C55.21143867 0.0599867 64.94352328 0.07639745 74.67563307 0.09647095 C85.75657081 0.11883015 96.8375107 0.12982344 107.91846538 0.13986182 C130.71004229 0.16076366 153.50157929 0.19593953 176.29312134 0.24050903 C175.96312134 1.23050903 175.63312134 2.22050903 175.29312134 3.24050903 C165.66400976 5.04474554 156.28638734 5.52363131 146.52310181 5.48342896 C144.98552876 5.48450483 143.44795612 5.48644803 141.91038513 5.48918152 C137.77154056 5.4939867 133.63280555 5.48642648 129.49397421 5.47622848 C125.1320317 5.46736385 120.77009178 5.46920712 116.40814209 5.46958923 C109.08006998 5.46865555 101.75203951 5.46001572 94.42398071 5.44631958 C86.00065271 5.43063261 77.57737034 5.4253205 69.15402877 5.42605513 C60.1254046 5.42673573 51.09679759 5.41976281 42.06817865 5.41060853 C39.495717 5.40849659 36.92325819 5.40777 34.35079575 5.40736961 C-0.03313777 5.39713834 -0.03313777 5.39713834 -15.70687866 4.24050903 C-11.39214116 -0.07422847 -5.79085439 -0.04830027 0 0 Z " fill="#262A33" transform="translate(198.70687866210938,43.759490966796875)"/>
<path d="M0 0 C9.31848416 -0.09267419 18.63680972 -0.1637516 27.95565414 -0.20724869 C32.28277614 -0.22812503 36.60958288 -0.25644312 40.93652344 -0.30175781 C45.11217599 -0.34521452 49.2875253 -0.36913675 53.46338654 -0.37950897 C55.0566307 -0.38690072 56.64985824 -0.40133521 58.24297333 -0.42292023 C60.47452169 -0.45195327 62.70481664 -0.45595626 64.93652344 -0.45410156 C66.20671326 -0.46298401 67.47690308 -0.47186646 68.7855835 -0.48101807 C72.56458569 0.08448685 73.72248241 0.99437287 76 4 C76.625 6.1875 76.625 6.1875 77 8 C79.60717423 9.30358712 81.49093842 9.11293913 84.41064453 9.09765625 C86.11888397 9.09276184 86.11888397 9.09276184 87.8616333 9.08776855 C89.10612244 9.07942993 90.35061157 9.07109131 91.6328125 9.0625 C93.60568697 9.05614773 95.5785615 9.04980485 97.55143738 9.04390717 C99.64398144 9.03698027 101.73650707 9.02789844 103.82904053 9.01831055 C110.93287317 8.98667135 118.03672763 8.97394845 125.140625 8.96875 C125.83657146 8.96820114 126.53251793 8.96765228 127.24955368 8.96708679 C142.51459246 8.96052024 157.75141281 9.28349553 173 10 C172.67 10.99 172.34 11.98 172 13 C158.49189968 13.02314064 144.98380406 13.04092391 131.47568798 13.05181217 C125.20375558 13.05703721 118.93183672 13.06412804 112.65991211 13.07543945 C106.61046019 13.08628172 100.56102132 13.0922797 94.51156044 13.09487724 C92.20022692 13.09672906 89.88889414 13.10034505 87.57756615 13.10573006 C84.34751196 13.11295821 81.1175121 13.11399018 77.88745117 13.11352539 C76.92576019 13.11712067 75.96406921 13.12071594 74.97323608 13.12442017 C74.09404007 13.1230455 73.21484406 13.12167084 72.30900574 13.12025452 C71.54483935 13.12117631 70.78067297 13.1220981 69.99335003 13.12304783 C68 13 68 13 65 12 C65.66666667 9.33333333 66.33333333 6.66666667 67 4 C44.23 3.67 21.46 3.34 -2 3 C-1.34 2.67 -0.68 2.34 0 2 C0 1.34 0 0.68 0 0 Z " fill="#080808" transform="translate(212,299)"/>
<path d="M0 0 C0.99 1.485 0.99 1.485 2 3 C1.67 4.65 1.34 6.3 1 8 C-31.34 8 -63.68 8 -97 8 C-93.60873968 4.60873968 -92.39039417 4.6374234 -87.78829956 4.5632782 C-86.93881744 4.56471329 -86.08933533 4.56614838 -85.21411133 4.56762695 C-83.86746147 4.55233948 -83.86746147 4.55233948 -82.49360657 4.53674316 C-79.52301872 4.50652321 -76.55275285 4.49733347 -73.58203125 4.48828125 C-71.52364523 4.47144124 -69.46526954 4.45329193 -67.40690613 4.43388367 C-61.98673733 4.38630396 -56.56661039 4.35654614 -51.14630127 4.33044434 C-45.61633027 4.30067902 -40.08650362 4.25413489 -34.55664062 4.20898438 C-23.70450247 4.12286057 -12.85233467 4.05555567 -2 4 C-2 3.34 -2 2.68 -2 2 C-1.34 2 -0.68 2 0 2 C0 1.34 0 0.68 0 0 Z " fill="#060606" transform="translate(482,294)"/>
<path d="M0 0 C27.72 0 55.44 0 84 0 C83.67 0.99 83.34 1.98 83 3 C54.95 3 26.9 3 -2 3 C-1.34 2.67 -0.68 2.34 0 2 C0 1.34 0 0.68 0 0 Z " fill="#1A1B1C" transform="translate(265,44)"/>
<path d="M0 0 C0 0.66 0 1.32 0 2 C24.75 2.495 24.75 2.495 50 3 C50 3.33 50 3.66 50 4 C29.76798726 4.86433289 9.58786996 5.13313285 -10.65924072 5.06866455 C-14.32815943 5.05816083 -17.997086 5.05381105 -21.66601562 5.04882812 C-28.77736161 5.03832063 -35.88867774 5.02141511 -43 5 C-43 4.34 -43 3.68 -43 3 C-44.32 2.67 -45.64 2.34 -47 2 C-46.01 2 -45.02 2 -44 2 C-44 1.34 -44 0.68 -44 0 C-29.31518811 -1.48216269 -14.71508993 -0.68395391 0 0 Z " fill="#2B2F37" transform="translate(422,44)"/>
<path d="M0 0 C0.6836261 -0.00029205 1.3672522 -0.00058411 2.07159424 -0.00088501 C4.31169718 0.00049868 6.5514597 0.01601394 8.79150391 0.03173828 C10.35234394 0.03547184 11.91318632 0.03831719 13.47402954 0.04031372 C17.56755121 0.04792321 21.6609293 0.06754841 25.75439453 0.08972168 C29.93731749 0.11023815 34.12026381 0.11932781 38.30322266 0.12939453 C46.49990287 0.15079703 54.69646674 0.18490028 62.89306641 0.22705078 C62.56306641 1.21705078 62.23306641 2.20705078 61.89306641 3.22705078 C23.77806641 3.72205078 23.77806641 3.72205078 -15.10693359 4.22705078 C-10.91420357 0.03432075 -5.66271405 -0.02044301 0 0 Z " fill="#101010" transform="translate(198.10693359375,43.77294921875)"/>
<path d="M0 0 C19.47 0 38.94 0 59 0 C58.67 0.99 58.34 1.98 58 3 C38.2 3 18.4 3 -2 3 C-1.34 2.67 -0.68 2.34 0 2 C0 1.34 0 0.68 0 0 Z " fill="#030303" transform="translate(212,299)"/>
<path d="M0 0 C0.33 0 0.66 0 1 0 C1.01417969 0.59167969 1.02835937 1.18335938 1.04296875 1.79296875 C1.09066406 2.58316406 1.13835937 3.37335938 1.1875 4.1875 C1.22230469 4.96480469 1.25710938 5.74210938 1.29296875 6.54296875 C2.91540253 12.18115022 8.95322745 15.624206 13.5 19 C17.66420558 22.09175357 21.34576978 25.29613677 25 29 C26.71917938 30.34267532 26.71917938 30.34267532 28.3125 31.3125 C29.6428125 32.1478125 29.6428125 32.1478125 31 33 C30.67 34.65 30.34 36.3 30 38 C26.4951774 36.48418428 24.0908738 34.41191253 21.3125 31.8125 C18.05553605 28.81935493 14.77500869 25.98458781 11.25 23.3125 C1.66177637 15.9853291 1.66177637 15.9853291 0 11 C-0.0685495 9.10529184 -0.08480372 7.2083166 -0.0625 5.3125 C-0.05347656 4.31863281 -0.04445313 3.32476562 -0.03515625 2.30078125 C-0.02355469 1.54152344 -0.01195312 0.78226563 0 0 Z " fill="#000000" transform="translate(376,131)"/>
<path d="M0 0 C0.33 0.66 0.66 1.32 1 2 C1.66 2 2.32 2 3 2 C3.02529705 8.51447727 3.04284444 15.02894193 3.05493164 21.54345703 C3.05996909 23.76090976 3.06679922 25.97835916 3.07543945 28.19580078 C3.08753072 31.37793805 3.0932341 34.56003151 3.09765625 37.7421875 C3.10281754 38.73805878 3.10797882 39.73393005 3.11329651 40.75997925 C3.11337204 41.68078278 3.11344757 42.6015863 3.11352539 43.55029297 C3.115746 44.3630368 3.11796661 45.17578064 3.12025452 46.01315308 C3 48 3 48 2 50 C1.34 50 0.68 50 0 50 C0 33.5 0 17 0 0 Z " fill="#373B41" transform="translate(171,222)"/>
<path d="M0 0 C13.53 0 27.06 0 41 0 C40.67 0.99 40.34 1.98 40 3 C25.81 3 11.62 3 -3 3 C-2.01 2.67 -1.02 2.34 0 2 C0 1.34 0 0.68 0 0 Z " fill="#0D0D0D" transform="translate(422,44)"/>
<path d="M0 0 C1.15680267 0.03541649 1.15680267 0.03541649 2.3369751 0.07154846 C4.79255764 0.14792964 7.2478043 0.23206317 9.703125 0.31640625 C11.37107749 0.36965255 13.03904621 0.42239277 14.70703125 0.47460938 C18.78927394 0.60351003 22.87123283 0.73936249 26.953125 0.87890625 C26.623125 1.86890625 26.293125 2.85890625 25.953125 3.87890625 C21.29004301 3.90359271 16.62699892 3.92175974 11.96386719 3.93383789 C10.37694639 3.93887213 8.79003023 3.94569994 7.203125 3.9543457 C4.92446751 3.96645107 2.64587124 3.97214358 0.3671875 3.9765625 C-0.70008072 3.98430443 -0.70008072 3.98430443 -1.78890991 3.99220276 C-6.81913159 3.99277796 -6.81913159 3.99277796 -9.046875 2.87890625 C-11.3798616 2.83868234 -13.71394166 2.83570378 -16.046875 2.87890625 C-10.60968195 -0.03387574 -6.11396983 -0.2218866 0 0 Z " fill="#242424" transform="translate(358.046875,308.12109375)"/>
<path d="M0 0 C-0.33 0.99 -0.66 1.98 -1 3 C-15.19 3 -29.38 3 -44 3 C-43.01 2.67 -42.02 2.34 -41 2 C-41 1.34 -41 0.68 -41 0 C-27.27882304 -1.32917512 -13.74508544 -0.7250697 0 0 Z " fill="#0F1010" transform="translate(419,44)"/>
<path d="M0 0 C13.2 0 26.4 0 40 0 C39.67 0.99 39.34 1.98 39 3 C25.8 3 12.6 3 -1 3 C-0.67 2.01 -0.34 1.02 0 0 Z " fill="#0E0E0F" transform="translate(309,44)"/>
<path d="M0 0 C1.19923096 0.01571045 2.39846191 0.0314209 3.6340332 0.04760742 C4.93276367 0.05727539 6.23149414 0.06694336 7.56958008 0.0769043 C8.94133084 0.10197033 10.31307563 0.12736516 11.68481445 0.15307617 C13.06826369 0.16812598 14.45172846 0.18181387 15.83520508 0.1940918 C19.22296653 0.22950394 22.60994585 0.27889563 25.99731445 0.34057617 C25.66731445 1.33057617 25.33731445 2.32057617 24.99731445 3.34057617 C14.76731445 3.34057617 4.53731445 3.34057617 -6.00268555 3.34057617 C-3.00268555 0.34057617 -3.00268555 0.34057617 0 0 Z " fill="#000000" transform="translate(391.002685546875,298.659423828125)"/>
<path d="M0 0 C0.66 0.99 1.32 1.98 2 3 C1.67 4.65 1.34 6.3 1 8 C-6.59 8 -14.18 8 -22 8 C-22.33 7.34 -22.66 6.68 -23 6 C-20.70691037 4.85345518 -19.20090344 4.80270883 -16.6484375 4.68359375 C-15.79765625 4.64169922 -14.946875 4.59980469 -14.0703125 4.55664062 C-12.73613281 4.49766602 -12.73613281 4.49766602 -11.375 4.4375 C-10.4778125 4.39431641 -9.580625 4.35113281 -8.65625 4.30664062 C-6.43765717 4.20043139 -4.2189512 4.09838806 -2 4 C-2 3.34 -2 2.68 -2 2 C-1.34 2 -0.68 2 0 2 C0 1.34 0 0.68 0 0 Z " fill="#101010" transform="translate(482,294)"/>
<path d="M0 0 C0.33 1.32 0.66 2.64 1 4 C-3.625 8 -3.625 8 -7 8 C-7.0825 8.763125 -7.165 9.52625 -7.25 10.3125 C-8.16543933 13.59282427 -9.08471245 14.3341214 -12 16 C-14.125 16.8125 -14.125 16.8125 -16 17 C-16.66 16.34 -17.32 15.68 -18 15 C-12.19825584 9.71945272 -6.25677351 4.73325656 0 0 Z " fill="#38628C" transform="translate(265,124)"/>
<path d="M0 0 C3.58331625 -0.02907084 7.16660208 -0.04682263 10.75 -0.0625 C11.76578125 -0.07087891 12.7815625 -0.07925781 13.828125 -0.08789062 C14.8078125 -0.09111328 15.7875 -0.09433594 16.796875 -0.09765625 C17.69760742 -0.10289307 18.59833984 -0.10812988 19.52636719 -0.11352539 C21.86381216 -0.00625023 23.79693002 0.21517954 26 1 C26.33 1.66 26.66 2.32 27 3 C17.76 3 8.52 3 -1 3 C-0.67 2.01 -0.34 1.02 0 0 Z " fill="#020202" transform="translate(324,309)"/>
<path d="M0 0 C7.26 0 14.52 0 22 0 C21.67 0.99 21.34 1.98 21 3 C13.41 3 5.82 3 -2 3 C-1.34 2.67 -0.68 2.34 0 2 C0 1.34 0 0.68 0 0 Z " fill="#000000" transform="translate(265,44)"/>
<path d="M0 0 C7.26 0 14.52 0 22 0 C21.67 0.99 21.34 1.98 21 3 C13.41 3 5.82 3 -2 3 C-1.34 2.67 -0.68 2.34 0 2 C0 1.34 0 0.68 0 0 Z " fill="#000000" transform="translate(353,44)"/>
<path d="M0 0 C0.99 0 1.98 0 3 0 C3.66 3.3 4.32 6.6 5 10 C8.3 10 11.6 10 15 10 C15 10.66 15 11.32 15 12 C8.49202707 13.27607312 5.43948606 12.62632404 0 9 C-0.29296875 6.8359375 -0.29296875 6.8359375 -0.1875 4.375 C-0.16042969 3.55773437 -0.13335937 2.74046875 -0.10546875 1.8984375 C-0.05326172 0.95871094 -0.05326172 0.95871094 0 0 Z " fill="#41668C" transform="translate(298,213)"/>
<path d="M0 0 C0 0.66 0 1.32 0 2 C-0.66 2 -1.32 2 -2 2 C-3.5056904 7.80766296 -4.21824777 12.9981863 -4 19 C-7 17 -7 17 -7.6875 14.609375 C-8.63534792 5.93656652 -8.63534792 5.93656652 -5.75 2.3125 C-3 0 -3 0 0 0 Z " fill="#5783AC" transform="translate(384,187)"/>
<path d="M0 0 C0.99 0.33 1.98 0.66 3 1 C2.67 1.721875 2.34 2.44375 2 3.1875 C0.93614961 6.17957922 0.45259787 7.87198783 1 11 C3.31232422 13.56249975 3.31232422 13.56249975 6 16 C7.05287814 17.63377642 8.0727001 19.29181597 9 21 C5.17836093 19.44303593 2.81381505 16.96591316 0 14 C-0.33 13.67 -0.66 13.34 -1 13 C-1.28668221 11.38415481 -1.5054948 9.75595569 -1.6875 8.125 C-1.79449219 7.24070313 -1.90148437 6.35640625 -2.01171875 5.4453125 C-2 3 -2 3 0 0 Z " fill="#527FAF" transform="translate(378,127)"/>
<path d="M0 0 C1.875 0.25 1.875 0.25 4 1 C5.72101535 3.58152302 6 4.84918025 6 8 C4.02 8.66 2.04 9.32 0 10 C0.33 9.01 0.66 8.02 1 7 C0.01 6.67 -0.98 6.34 -2 6 C-1.34 4.02 -0.68 2.04 0 0 Z " fill="#444E57" transform="translate(384,302)"/>
<path d="M0 0 C0.66 0.33 1.32 0.66 2 1 C0.87906823 5.57713807 -0.54514823 9.20027292 -2.98046875 13.22265625 C-4.59648855 16.03985552 -5.77368705 18.99553327 -7 22 C-8 19 -8 19 -7 16 C-7.33 15.01 -7.66 14.02 -8 13 C-7.01 12.01 -6.02 11.02 -5 10 C-4.67 10.33 -4.34 10.66 -4 11 C-3.34 8.69 -2.68 6.38 -2 4 C-1.34 4 -0.68 4 0 4 C0 2.68 0 1.36 0 0 Z " fill="#376FA4" transform="translate(329,185)"/>
<path d="M0 0 C5.94 0 11.88 0 18 0 C17.67 0.99 17.34 1.98 17 3 C11.06 3 5.12 3 -1 3 C-0.67 2.01 -0.34 1.02 0 0 Z " fill="#000000" transform="translate(331,44)"/>
<path d="M0 0 C0.66 0.66 1.32 1.32 2 2 C1.67 2.66 1.34 3.32 1 4 C0.01 4 -0.98 4 -2 4 C-2.23460937 4.58265625 -2.46921875 5.1653125 -2.7109375 5.765625 C-4.29152924 8.50531734 -6.09401497 9.86983969 -8.625 11.75 C-9.44226563 12.36359375 -10.25953125 12.9771875 -11.1015625 13.609375 C-11.72804688 14.06828125 -12.35453125 14.5271875 -13 15 C-13.66 14.67 -14.32 14.34 -15 14 C-14 11 -14 11 -11.125 9.375 C-8 8 -8 8 -5 7 C-5 6.01 -5 5.02 -5 4 C-5.66 3.34 -6.32 2.68 -7 2 C-5.68 1.67 -4.36 1.34 -3 1 C-3 1.66 -3 2.32 -3 3 C-2.01 3 -1.02 3 0 3 C0 2.01 0 1.02 0 0 Z " fill="#3471AB" transform="translate(409,193)"/>
<path d="M0 0 C4.95 0 9.9 0 15 0 C14.67 0.99 14.34 1.98 14 3 C8.72 3 3.44 3 -2 3 C-1.34 2.67 -0.68 2.34 0 2 C0 1.34 0 0.68 0 0 Z " fill="#000000" transform="translate(212,299)"/>
<path d="M0 0 C3.56160791 0.59798214 6.23976006 1.62090629 9.125 3.875 C9.125 4.535 9.125 5.195 9.125 5.875 C8.47273438 5.74222656 7.82046875 5.60945313 7.1484375 5.47265625 C2.4841713 4.53017178 -2.17368454 3.61731297 -6.875 2.875 C-4.84278918 -0.3003294 -3.86047272 -0.12453138 0 0 Z " fill="#4A6E95" transform="translate(272.875,121.125)"/>
<path d="M0 0 C5.28 0 10.56 0 16 0 C15.67 0.99 15.34 1.98 15 3 C9.06 3 3.12 3 -3 3 C-2.01 2.67 -1.02 2.34 0 2 C0 1.34 0 0.68 0 0 Z " fill="#000000" transform="translate(422,44)"/>
<path d="M0 0 C2.27024968 -0.08097324 4.54132075 -0.13917704 6.8125 -0.1875 C8.07707031 -0.22230469 9.34164063 -0.25710937 10.64453125 -0.29296875 C14 0 14 0 17 3 C10.4 3 3.8 3 -3 3 C-2.01 2.67 -1.02 2.34 0 2 C0 1.34 0 0.68 0 0 Z " fill="#000000" transform="translate(378,44)"/>
<path d="M0 0 C4.62 0 9.24 0 14 0 C13.67 0.99 13.34 1.98 13 3 C8.05 3 3.1 3 -2 3 C-1.34 2.67 -0.68 2.34 0 2 C0 1.34 0 0.68 0 0 Z " fill="#000000" transform="translate(447,299)"/>
<path d="M0 0 C-0.33 1.65 -0.66 3.3 -1 5 C0.32 5.66 1.64 6.32 3 7 C2.34 7.66 1.68 8.32 1 9 C-0.9375 9 -0.9375 9 -3 8 C-6 2.96428571 -6 2.96428571 -6 0 C-2.25 -1.125 -2.25 -1.125 0 0 Z " fill="#3473B0" transform="translate(256,164)"/>
<path d="M0 0 C0.66 0 1.32 0 2 0 C2.33 2.64 2.66 5.28 3 8 C3.99 8 4.98 8 6 8 C6.66 10.31 7.32 12.62 8 15 C4.94127906 13.7027746 2.36456436 12.35937891 0 10 C-0.7114192 6.5736796 -0.48230236 3.44980157 0 0 Z " fill="#415F7F" transform="translate(222,163)"/>
<path d="M0 0 C4.95 0 9.9 0 15 0 C14.67 0.99 14.34 1.98 14 3 C8.72 3 3.44 3 -2 3 C-1.34 2.67 -0.68 2.34 0 2 C0 1.34 0 0.68 0 0 Z " fill="#000000" transform="translate(246,44)"/>
<path d="M0 0 C2 3 2 3 1.625 5.6875 C1.41875 6.450625 1.2125 7.21375 1 8 C-1.97 8 -4.94 8 -8 8 C-5.9632277 4.94484155 -5.19413427 4.39743375 -2 3 C-1.34 2.67 -0.68 2.34 0 2 C0 1.34 0 0.68 0 0 Z " fill="#070707" transform="translate(482,294)"/>
<path d="M0 0 C1.1875 1.6875 1.1875 1.6875 2 4 C0.75 6.75 0.75 6.75 -1 9 C-1.66 9 -2.32 9 -3 9 C-3 7.68 -3 6.36 -3 5 C-3.66 4.67 -4.32 4.34 -5 4 C-3.35 2.68 -1.7 1.36 0 0 Z " fill="#316393" transform="translate(237,147)"/>
<path d="M0 0 C0.33 1.32 0.66 2.64 1 4 C-3.625 8 -3.625 8 -7 8 C-7 8.66 -7 9.32 -7 10 C-7.99 9.67 -8.98 9.34 -10 9 C-6.83047153 5.73991357 -3.60062011 2.77762123 0 0 Z " fill="#46647F" transform="translate(265,124)"/>
<path d="M0 0 C0.94875 0.04125 1.8975 0.0825 2.875 0.125 C0.06695732 3.08904505 -2.30815774 5.56999019 -6.125 7.125 C-5.03177966 0.20127119 -5.03177966 0.20127119 0 0 Z " fill="#3370AA" transform="translate(417.125,186.875)"/>
<path d="M0 0 C2 2 2 2 2 6 C1.01 6 0.02 6 -1 6 C-1.33 8.31 -1.66 10.62 -2 13 C-2.99 12.34 -3.98 11.68 -5 11 C-3.35 7.37 -1.7 3.74 0 0 Z " fill="#44698D" transform="translate(323,159)"/>
<path d="M0 0 C4 0 4 0 8 1 C4.04 4.465 4.04 4.465 0 8 C-0.66 7.67 -1.32 7.34 -2 7 C-1.125 2.25 -1.125 2.25 0 0 Z " fill="#3471AD" transform="translate(258,155)"/>
<path d="M0 0 C0.77601563 0.09925781 1.55203125 0.19851562 2.3515625 0.30078125 C4.375 0.6875 4.375 0.6875 6.375 1.6875 C6.375 2.3475 6.375 3.0075 6.375 3.6875 C5.37919922 3.56181641 5.37919922 3.56181641 4.36328125 3.43359375 C-2.17220848 2.63324958 -2.17220848 2.63324958 -8.625 3.6875 C-8.625 3.0275 -8.625 2.3675 -8.625 1.6875 C-5.50156536 -0.17372475 -3.5866974 -0.4978192 0 0 Z " fill="#4B76A6" transform="translate(389.625,122.3125)"/>
<path d="M0 0 C1.0625 1.875 1.0625 1.875 2 4 C1.67 4.66 1.34 5.32 1 6 C0.34 6 -0.32 6 -1 6 C-0.67 6.99 -0.34 7.98 0 9 C-0.99 9.33 -1.98 9.66 -3 10 C-3.33 10.99 -3.66 11.98 -4 13 C-5 10 -5 10 -4.00390625 7.51953125 C-3.52824219 6.62621094 -3.05257813 5.73289063 -2.5625 4.8125 C-2.08941406 3.91144531 -1.61632812 3.01039063 -1.12890625 2.08203125 C-0.75636719 1.39496094 -0.38382812 0.70789063 0 0 Z " fill="#385C7F" transform="translate(315,177)"/>
<path d="M0 0 C2.97 0.495 2.97 0.495 6 1 C6.33 1.99 6.66 2.98 7 4 C8.62652316 5.70586575 10.29006566 7.3777546 12 9 C8.47967572 9 7.5614657 8.29648649 5 6 C5 5.34 5 4.68 5 4 C4.360625 3.71125 3.72125 3.4225 3.0625 3.125 C1 2 1 2 0 0 Z " fill="#3F6E9E" transform="translate(391,151)"/>
<path d="M0 0 C0.79148437 -0.02578125 1.58296875 -0.0515625 2.3984375 -0.078125 C5.09524878 0.31929982 5.93229015 1.17506535 7.625 3.25 C6.408125 3.023125 5.19125 2.79625 3.9375 2.5625 C0.64879309 2.13023657 -0.24846463 2.18936847 -3.375 3.6875 C-4.365 4.4609375 -4.365 4.4609375 -5.375 5.25 C-5.375 -0.12362825 -4.89174846 0.09498541 0 0 Z " fill="#43688A" transform="translate(353.375,106.75)"/>
<path d="M0 0 C2.05300878 1.68022561 2.92823089 2.52068491 3.328125 5.19140625 C3.30234375 5.97386719 3.2765625 6.75632813 3.25 7.5625 C3.23453125 8.34753906 3.2190625 9.13257813 3.203125 9.94140625 C3 12 3 12 2 14 C1.34 14 0.68 14 0 14 C-0.33 14.99 -0.66 15.98 -1 17 C-1.6875 15.1875 -1.6875 15.1875 -2 13 C-1.525625 12.54625 -1.05125 12.0925 -0.5625 11.625 C1.30869995 10.02018571 1.30869995 10.02018571 1.25 7.0625 C1.04575714 4.56052492 0.73510355 2.38908655 0 0 Z " fill="#3A6C9D" transform="translate(282,191)"/>
<path d="M0 0 C1 3 1 3 -0.3125 5.6875 C-0.869375 6.450625 -1.42625 7.21375 -2 8 C-2.66 8 -3.32 8 -4 8 C-4 8.66 -4 9.32 -4 10 C-4.66 9.67 -5.32 9.34 -6 9 C-5.38245741 7.68397477 -4.75571258 6.37226444 -4.125 5.0625 C-3.77695312 4.33160156 -3.42890625 3.60070312 -3.0703125 2.84765625 C-2 1 -2 1 0 0 Z " fill="#496F98" transform="translate(339,129)"/>
<path d="M0 0 C0.33 0.66 0.66 1.32 1 2 C0.22265625 4.1640625 0.22265625 4.1640625 -0.9375 6.625 C-1.31777344 7.44226563 -1.69804687 8.25953125 -2.08984375 9.1015625 C-2.39019531 9.72804687 -2.69054687 10.35453125 -3 11 C-5.0859375 7.328125 -5.0859375 7.328125 -4.3125 4.375 C-3 2 -3 2 0 0 Z " fill="#3371AB" transform="translate(360,122)"/>
<path d="M0 0 C0.33 0.99 0.66 1.98 1 3 C1.66 3 2.32 3 3 3 C3 4.32 3 5.64 3 7 C2.01 7.33 1.02 7.66 0 8 C-0.99 7.34 -1.98 6.68 -3 6 C-2.01 4.02 -1.02 2.04 0 0 Z " fill="#487AB2" transform="translate(307,194)"/>
<path d="M0 0 C2.9375 0.8125 2.9375 0.8125 6 2 C6.33 2.99 6.66 3.98 7 5 C8.32467746 5.6837045 9.65863633 6.34964186 11 7 C11.99 8.485 11.99 8.485 13 10 C9.74035658 8.51222697 7.06830707 6.64333184 4.25 4.4375 C3.45078125 3.81746094 2.6515625 3.19742188 1.828125 2.55859375 C1.22484375 2.04425781 0.6215625 1.52992188 0 1 C0 0.67 0 0.34 0 0 Z " fill="#3B6287" transform="translate(241,187)"/>
<path d="M0 0 C1.65 0.33 3.3 0.66 5 1 C4.40138258 3.35171131 3.73075648 5.6859378 3 8 C2.01 8.495 2.01 8.495 1 9 C1 7.02 1 5.04 1 3 C0.34 2.67 -0.32 2.34 -1 2 C-0.67 1.34 -0.34 0.68 0 0 Z " fill="#3470AD" transform="translate(338,160)"/>
<path d="M0 0 C0.66 0 1.32 0 2 0 C2.66 1.65 3.32 3.3 4 5 C1.69 5.66 -0.62 6.32 -3 7 C-2.01 4.69 -1.02 2.38 0 0 Z " fill="#3D6F9E" transform="translate(345,113)"/>
<path d="M0 0 C2.31 0 4.62 0 7 0 C6.67 0.99 6.34 1.98 6 3 C3.03 3 0.06 3 -3 3 C-2.01 2.67 -1.02 2.34 0 2 C0 1.34 0 0.68 0 0 Z " fill="#000000" transform="translate(378,309)"/>
<path d="M0 0 C1.65 0 3.3 0 5 0 C4.46930939 3.82097239 3.50298434 6.06171403 1 9 C0.67 6.03 0.34 3.06 0 0 Z " fill="#3570AB" transform="translate(330,177)"/>
<path d="M0 0 C0 1.32 0 2.64 0 4 C-2.875 4.625 -2.875 4.625 -6 5 C-6.66 4.34 -7.32 3.68 -8 3 C-4.93882432 0.37613513 -4.26826873 0 0 0 Z " fill="#416C95" transform="translate(407,169)"/>
<path d="M0 0 C2 1 4 2 6 3 C6 3.66 6 4.32 6 5 C6.99 5.33 7.98 5.66 9 6 C7.68 6.33 6.36 6.66 5 7 C4.67 6.01 4.34 5.02 4 4 C3.01 4.33 2.02 4.66 1 5 C0.67 3.35 0.34 1.7 0 0 Z " fill="#376DA5" transform="translate(424,149)"/>
<path d="M0 0 C0.99 0.33 1.98 0.66 3 1 C-1.455 4.465 -1.455 4.465 -6 8 C-6.66 7.67 -7.32 7.34 -8 7 C-7 4 -7 4 -4 2.375 C-3.01 1.92125 -2.02 1.4675 -1 1 C-0.67 0.67 -0.34 0.34 0 0 Z " fill="#3D6B9E" transform="translate(402,200)"/>
<path d="M0 0 C0.66 0.99 1.32 1.98 2 3 C0.66666667 9.33333333 0.66666667 9.33333333 -2 12 C-1.814375 11.071875 -1.62875 10.14375 -1.4375 9.1875 C-0.75876119 5.98656229 -0.75876119 5.98656229 -2 3 C-1.34 2.01 -0.68 1.02 0 0 Z " fill="#3372AF" transform="translate(323,195)"/>
<path d="M0 0 C3.3 0.99 6.6 1.98 10 3 C10 3.33 10 3.66 10 4 C6.7 4 3.4 4 0 4 C0 2.68 0 1.36 0 0 Z " fill="#202122" transform="translate(277,307)"/>
<path d="M0 0 C0 0.66 0 1.32 0 2 C-6.4 3.23076923 -6.4 3.23076923 -9.4375 2.0625 C-9.953125 1.711875 -10.46875 1.36125 -11 1 C-7.32589215 -0.17571451 -3.83070817 -0.07366746 0 0 Z " fill="#406B97" transform="translate(313,223)"/>
<path d="M0 0 C0.66 0 1.32 0 2 0 C2.625 1.875 2.625 1.875 3 4 C2.34 4.66 1.68 5.32 1 6 C0.01 6 -0.98 6 -2 6 C-1.125 1.125 -1.125 1.125 0 0 Z " fill="#4976A3" transform="translate(303,203)"/>
<path d="M0 0 C0.66 0.33 1.32 0.66 2 1 C2 1.66 2 2.32 2 3 C1.34 3 0.68 3 0 3 C0 3.66 0 4.32 0 5 C-1.98 5.66 -3.96 6.32 -6 7 C-4.60667426 3.63279613 -3.0210714 2.0140476 0 0 Z " fill="#2C4258" transform="translate(398,173)"/>
<path d="M0 0 C4.39158329 1.4638611 4.87947433 3.97831338 7 8 C4.50638429 6.79618552 2.31856917 5.54571278 0 4 C0 2.68 0 1.36 0 0 Z " fill="#3E6D9C" transform="translate(380,140)"/>
<path d="M0 0 C3.63 0 7.26 0 11 0 C11 0.66 11 1.32 11 2 C9.35 2.33 7.7 2.66 6 3 C6 2.34 6 1.68 6 1 C4.02 1 2.04 1 0 1 C0 0.67 0 0.34 0 0 Z " fill="#313944" transform="translate(397,268)"/>
<path d="M0 0 C1.28317892 3.84953676 1.06643637 6.94738135 1 11 C0.01 10.34 -0.98 9.68 -2 9 C-1.125 2.25 -1.125 2.25 0 0 Z " fill="#4479AB" transform="translate(379,195)"/>
<path d="M0 0 C0.66 0.99 1.32 1.98 2 3 C-0.8125 4.125 -0.8125 4.125 -4 5 C-4.99 4.34 -5.98 3.68 -7 3 C-4.69 2.01 -2.38 1.02 0 0 Z " fill="#3A7BBB" transform="translate(352,109)"/>
<path d="M0 0 C0.99 0.33 1.98 0.66 3 1 C2.6875 2.9375 2.6875 2.9375 2 5 C1.01 5.33 0.02 5.66 -1 6 C-1.66 5.34 -2.32 4.68 -3 4 C-2.01 2.68 -1.02 1.36 0 0 Z " fill="#454A51" transform="translate(162,285)"/>
<path d="M0 0 C5.66153846 1.47692308 5.66153846 1.47692308 7.375 4.125 C7.684375 5.053125 7.684375 5.053125 8 6 C4.63408134 4.55746343 2.48952921 2.66735273 0 0 Z " fill="#3A6FA6" transform="translate(260,202)"/>
<path d="M0 0 C0.33 0.99 0.66 1.98 1 3 C-0.4375 5.1875 -0.4375 5.1875 -2 7 C-2.66 6.67 -3.32 6.34 -4 6 C-3.6875 4.125 -3.6875 4.125 -3 2 C-2.01 1.34 -1.02 0.68 0 0 Z " fill="#3B5D7E" transform="translate(230,153)"/>
<path d="M0 0 C0 0.66 0 1.32 0 2 C-3.98196457 3.05404945 -6.98195309 2.84098656 -11 2 C-11 1.67 -11 1.34 -11 1 C-7.26513121 0.4254048 -3.78706732 0 0 0 Z " fill="#323335" transform="translate(353,44)"/>
<path d="M0 0 C0 0.66 0 1.32 0 2 C-3.98196457 3.05404945 -6.98195309 2.84098656 -11 2 C-11 1.67 -11 1.34 -11 1 C-7.26513121 0.4254048 -3.78706732 0 0 0 Z " fill="#39393D" transform="translate(265,44)"/>
<path d="M0 0 C0.66 0 1.32 0 2 0 C2.66 1.65 3.32 3.3 4 5 C3.34 5.66 2.68 6.32 2 7 C2 6.34 2 5.68 2 5 C1.01 4.67 0.02 4.34 -1 4 C-0.67 2.68 -0.34 1.36 0 0 Z " fill="#67686C" transform="translate(383,304)"/>
<path d="M0 0 C1.5625 1.25 1.5625 1.25 3 3 C2.6875 5.1875 2.6875 5.1875 2 7 C1.34 7 0.68 7 0 7 C-0.38133299 5.0085944 -0.71325582 3.00720923 -1 1 C-0.67 0.67 -0.34 0.34 0 0 Z " fill="#3C75B2" transform="translate(325,156)"/>
<path d="M0 0 C0.66 0.99 1.32 1.98 2 3 C0.625 5 0.625 5 -1 7 C-1.66 7 -2.32 7 -3 7 C-2.67 5.35 -2.34 3.7 -2 2 C-1.34 2 -0.68 2 0 2 C0 1.34 0 0.68 0 0 Z " fill="#447CB0" transform="translate(330,148)"/>
</svg>
